<svg xmlns="http://www.w3.org/2000/svg" viewBox="0 0 1200 500" fill="none"><defs><linearGradient id="sky" x1="164" x2="1037" y1="25" y2="452" gradientUnits="userSpaceOnUse"><stop stop-color="#203c59"/><stop offset=".48" stop-color="#4a7493"/><stop offset="1" stop-color="#6c8a58"/></linearGradient><linearGradient id="water" x1="403" x2="641" y1="330" y2="500" gradientUnits="userSpaceOnUse"><stop stop-color="#d7f4ff" stop-opacity=".92"/><stop offset="1" stop-color="#77b7d9" stop-opacity=".2"/></linearGradient></defs><rect width="1200" height="500" rx="32" fill="url(#sky)"/><path fill="#e8eef4" d="m278 272 120-113 75 57 78-97 77 71 102-96 85 82 65-54 167 150H278Z" opacity=".92"/><path fill="#b2c7d6" d="m403 274 68-58 79-92 74 66 96-88 83 73 74-48 141 147H403Z" opacity=".76"/><path fill="#507046" d="M0 305c88 23 191 30 281 14 72-13 131-39 206-40 74 0 138 32 223 29 98-3 174-48 266-46 67 1 132 28 224 20v218H0V305Z"/><path fill="#876a41" d="M0 370c84-12 158-39 257-32 100 7 177 56 302 53 138-2 236-68 375-69 121-1 192 43 266 40v138H0V370Z" opacity=".72"/><path fill="#214231" d="M0 425c101-9 194-44 313-34 125 10 211 57 355 53 182-4 301-45 532-31v87H0v-75Z"/><path fill="url(#water)" d="M370 500c92-6 112-33 138-68 23-32 45-76 84-88 47-14 86 11 129 0 45-12 76-48 108-88 14 39 7 84-17 125-30 51-79 93-134 119H370Z" opacity=".95"/><path stroke="#f7f0cb" stroke-dasharray="12 12" stroke-linecap="round" stroke-width="4" d="M239 251c95 3 190 33 308 30 133-4 224-41 361-39 71 2 132 13 198 27" opacity=".82"/><g fill="#274131"><path d="m163 414 21-47 21 47h-16v30h-10v-30h-16Z"/><path d="m220 427 14-31 14 31h-11v16h-6v-16h-11Z"/><path d="m871 414 20-46 20 46h-15v28h-10v-28h-15Z"/><path d="m919 427 14-31 14 31h-11v16h-6v-16h-11Z"/></g><path fill="#fff3c7" d="M171 370v69h11v-69h-11Zm221-15v58h11v-58h-11Zm217 4v64h11v-64h-11Zm315-18v69h11v-69h-11Z"/><path fill="#e66d4c" d="M182 379h23l-23 13zM403 364h23l-23 13zM620 368h23l-23 13zM935 350h23l-23 13z"/></svg>