<svg xmlns="http://www.w3.org/2000/svg" viewBox="0 0 1200 630" fill="none"><defs><linearGradient id="bg" x1="140" x2="1038" y1="48" y2="588" gradientUnits="userSpaceOnUse"><stop stop-color="#203b58"/><stop offset=".58" stop-color="#4d7594"/><stop offset="1" stop-color="#61794c"/></linearGradient></defs><rect width="1200" height="630" rx="36" fill="url(#bg)"/><path fill="#edf2f7" d="m719 425 82-85 62 50 74-85 86 79 58-42 119 83H719Z" opacity=".9"/><path fill="#56734b" d="M624 432c130 10 202-30 328-30 104 0 161 34 248 40v188H624V432Z"/><path fill="#8b6d43" d="M632 493c80-6 100-27 124-57 21-27 42-64 78-74 43-12 78 9 117 0 39-9 71-38 98-71 11 31 3 73-20 112-28 47-75 88-129 114H632V493Z" opacity=".84"/><path stroke="#fff1bc" stroke-dasharray="12 12" stroke-linecap="round" stroke-width="4" d="M664 405c114 8 182-12 280-35 66-15 145-14 218 11"/><text x="84" y="176" fill="#FCE8A8" font-family="Inter,Segoe UI,Arial,sans-serif" font-size="28" font-weight="700" letter-spacing="6">KENAI LAND SALES</text><text x="84" y="276" fill="#fff" font-family="Inter,Segoe UI,Arial,sans-serif" font-size="72" font-weight="800">Kenai Land Sales</text><text x="84" y="342" fill="#E4EFF7" font-family="Inter,Segoe UI,Arial,sans-serif" font-size="36" font-weight="600">Owner-direct Alaska land listings with maps, acreage, and closing confidence.</text><text x="84" y="398" fill="#DDF59C" font-family="Inter,Segoe UI,Arial,sans-serif" font-size="28" font-weight="700">Kenai Peninsula, Alaska</text></svg>